<svg xmlns="http://www.w3.org/2000/svg" xmlns:xlink="http://www.w3.org/1999/xlink" width="500" zoomAndPan="magnify" viewBox="0 0 375 374.999991" height="500" preserveAspectRatio="xMidYMid meet" version="1.0"><defs><clipPath id="a374898580"><path d="M 24.96875 24.96875 L 349.71875 24.96875 L 349.71875 349.71875 L 24.96875 349.71875 Z M 24.96875 24.96875 " clip-rule="nonzero"/></clipPath></defs><g clip-path="url(#a374898580)"><path fill="#ffffff" d="M 187.496094 54.519531 C 114.054688 54.519531 54.519531 114.054688 54.519531 187.496094 C 54.519531 260.9375 114.054688 320.472656 187.496094 320.472656 C 260.9375 320.472656 320.472656 260.9375 320.472656 187.496094 C 320.472656 114.054688 260.9375 54.519531 187.496094 54.519531 Z M 24.96875 187.496094 C 24.96875 97.734375 97.734375 24.96875 187.496094 24.96875 C 277.257812 24.96875 350.023438 97.734375 350.023438 187.496094 C 350.023438 277.257812 277.257812 350.023438 187.496094 350.023438 C 97.734375 350.023438 24.96875 277.257812 24.96875 187.496094 Z M 24.96875 187.496094 " fill-opacity="1" fill-rule="evenodd"/></g><path fill="#ffffff" d="M 134.3125 150.558594 C 134.3125 126.078125 154.15625 106.234375 178.636719 106.234375 L 224.441406 106.234375 L 224.441406 135.78125 L 178.636719 135.78125 C 170.476562 135.78125 163.863281 142.398438 163.863281 150.558594 L 163.863281 157.945312 C 163.863281 166.105469 170.476562 172.722656 178.636719 172.722656 L 196.367188 172.722656 C 220.847656 172.722656 240.691406 192.566406 240.691406 217.046875 L 240.691406 224.433594 C 240.691406 248.914062 220.847656 268.761719 196.367188 268.761719 L 150.5625 268.761719 L 150.5625 239.210938 L 196.367188 239.210938 C 204.527344 239.210938 211.140625 232.59375 211.140625 224.433594 L 211.140625 217.046875 C 211.140625 208.886719 204.527344 202.269531 196.367188 202.269531 L 178.636719 202.269531 C 154.15625 202.269531 134.3125 182.425781 134.3125 157.945312 Z M 134.3125 150.558594 " fill-opacity="1" fill-rule="evenodd"/><path fill="#ffffff" d="M 172.722656 88.503906 L 202.269531 88.503906 L 202.269531 121.007812 L 172.722656 121.007812 Z M 172.722656 88.503906 " fill-opacity="1" fill-rule="evenodd"/><path fill="#ffffff" d="M 172.722656 253.984375 L 202.269531 253.984375 L 202.269531 286.488281 L 172.722656 286.488281 Z M 172.722656 253.984375 " fill-opacity="1" fill-rule="evenodd"/></svg>