<svg xmlns="http://www.w3.org/2000/svg" xmlns:xlink="http://www.w3.org/1999/xlink" width="1920" zoomAndPan="magnify" viewBox="0 0 1440 149.999998" height="200" preserveAspectRatio="xMidYMid meet" version="1.0"><defs><g/></defs><rect x="-144" width="1728" fill="#ffffff" y="-15" height="179.999997" fill-opacity="1"/><rect x="-144" width="1728" fill="#ffffff" y="-15" height="179.999997" fill-opacity="1"/><g fill="#000000" fill-opacity="1"><g transform="translate(1.989306, 108.085186)"><g><path d="M 50.09375 1.640625 C 39.84375 1.640625 31.582031 0.539062 25.3125 -1.65625 C 19.039062 -3.863281 14.265625 -6.894531 10.984375 -10.75 C 7.710938 -14.613281 5.515625 -19.0625 4.390625 -24.09375 L 38.15625 -24.09375 C 40.65625 -20.5 44.632812 -18.703125 50.09375 -18.703125 C 55.550781 -18.703125 59.53125 -20.5 62.03125 -24.09375 C 62.25 -24.445312 62.359375 -24.765625 62.359375 -25.046875 C 62.359375 -25.992188 61.097656 -26.707031 58.578125 -27.1875 C 56.054688 -27.664062 52.296875 -28.023438 47.296875 -28.265625 C 40.984375 -28.546875 34.359375 -29.21875 27.421875 -30.28125 C 11.960938 -32.675781 4.234375 -38.894531 4.234375 -48.9375 C 4.234375 -49.78125 4.285156 -50.675781 4.390625 -51.625 C 5.515625 -56.664062 7.710938 -61.113281 10.984375 -64.96875 C 14.265625 -68.820312 19.039062 -71.847656 25.3125 -74.046875 C 31.582031 -76.253906 39.84375 -77.359375 50.09375 -77.359375 C 60.34375 -77.359375 68.601562 -76.253906 74.875 -74.046875 C 81.144531 -71.847656 85.914062 -68.820312 89.1875 -64.96875 C 92.46875 -61.113281 94.671875 -56.664062 95.796875 -51.625 L 62.03125 -51.625 C 59.53125 -55.21875 55.550781 -57.015625 50.09375 -57.015625 C 44.632812 -57.015625 40.65625 -55.21875 38.15625 -51.625 C 37.976562 -51.34375 37.890625 -51.078125 37.890625 -50.828125 C 37.890625 -49.984375 39.09375 -49.359375 41.5 -48.953125 C 43.914062 -48.546875 47.472656 -48.203125 52.171875 -47.921875 C 56.878906 -47.640625 61.890625 -47.179688 67.203125 -46.546875 C 72.523438 -45.921875 77.503906 -44.820312 82.140625 -43.25 C 86.773438 -41.6875 90.394531 -39.367188 93 -36.296875 C 95.039062 -33.941406 96.0625 -30.945312 96.0625 -27.3125 C 96.0625 -26.289062 95.972656 -25.21875 95.796875 -24.09375 C 94.671875 -19.0625 92.46875 -14.613281 89.1875 -10.75 C 85.914062 -6.894531 81.144531 -3.863281 74.875 -1.65625 C 68.601562 0.539062 60.34375 1.640625 50.09375 1.640625 Z M 50.09375 1.640625 "/></g></g></g><g fill="#000000" fill-opacity="1"><g transform="translate(102.27946, 108.085186)"><g><path d="M 40.265625 0 L 8.453125 0 L 8.453125 -75.828125 L 40.265625 -75.828125 Z M 40.265625 0 "/></g></g></g><g fill="#000000" fill-opacity="1"><g transform="translate(150.99786, 108.085186)"><g><path d="M 152.609375 0 L 120.796875 0 L 120.796875 -48.34375 L 92.359375 0 L 68.640625 0 L 40.265625 -48.34375 L 40.265625 0 L 8.453125 0 L 8.453125 -75.828125 L 46.234375 -75.828125 L 80.53125 -21.671875 L 114.765625 -75.828125 L 152.609375 -75.828125 Z M 152.609375 0 "/></g></g></g><g fill="#000000" fill-opacity="1"><g transform="translate(312.053916, 108.085186)"><g><path d="M 40.265625 0 L 8.453125 0 L 8.453125 -75.828125 L 60.1875 -75.828125 C 72.550781 -75.828125 82.53125 -74.898438 90.125 -73.046875 C 97.71875 -71.203125 103.253906 -68.296875 106.734375 -64.328125 C 110.222656 -60.367188 111.96875 -55.203125 111.96875 -48.828125 C 111.96875 -42.484375 110.222656 -37.328125 106.734375 -33.359375 C 103.253906 -29.398438 97.71875 -26.492188 90.125 -24.640625 C 82.53125 -22.796875 72.550781 -21.875 60.1875 -21.875 L 40.265625 -21.875 Z M 40.265625 -40.578125 L 58.4375 -40.640625 C 63.507812 -40.640625 67.507812 -40.835938 70.4375 -41.234375 C 73.363281 -41.640625 75.519531 -42.210938 76.90625 -42.953125 C 78.300781 -43.691406 79.191406 -44.5625 79.578125 -45.5625 C 79.960938 -46.570312 80.15625 -47.660156 80.15625 -48.828125 C 80.15625 -50.023438 79.960938 -51.125 79.578125 -52.125 C 79.191406 -53.132812 78.300781 -54.007812 76.90625 -54.75 C 75.519531 -55.488281 73.363281 -56.054688 70.4375 -56.453125 C 67.507812 -56.859375 63.507812 -57.0625 58.4375 -57.0625 L 40.265625 -57.0625 Z M 40.265625 -40.578125 "/></g></g></g><g fill="#000000" fill-opacity="1"><g transform="translate(428.248898, 108.085186)"><g><path d="M 96.96875 0 L 8.453125 0 L 8.453125 -75.828125 L 40.265625 -75.828125 L 40.265625 -18.765625 L 96.96875 -18.765625 Z M 96.96875 0 "/></g></g></g><g fill="#000000" fill-opacity="1"><g transform="translate(527.323747, 108.085186)"><g><path d="M 99.765625 0 L 8.453125 0 L 8.453125 -75.828125 L 95.59375 -75.828125 L 95.59375 -57.0625 L 40.265625 -57.0625 L 40.265625 -45.171875 L 87.03125 -45.171875 L 87.03125 -30.59375 L 40.265625 -30.59375 L 40.265625 -18.765625 L 99.765625 -18.765625 Z M 99.765625 0 "/></g></g></g><g fill="#000000" fill-opacity="1"><g transform="translate(631.324759, 108.085186)"><g/></g></g><g fill="#000000" fill-opacity="1"><g transform="translate(658.167436, 108.085186)"><g/></g></g><g fill="#00bf63" fill-opacity="1"><g transform="translate(685.019261, 108.085186)"><g><path d="M 40.265625 0 L 8.453125 0 L 8.453125 -75.828125 L 95.59375 -75.828125 L 95.59375 -57.0625 L 40.265625 -57.0625 L 40.265625 -45.171875 L 87.03125 -45.171875 L 87.03125 -30.59375 L 40.265625 -30.59375 Z M 40.265625 0 "/></g></g></g><g fill="#00bf63" fill-opacity="1"><g transform="translate(784.833856, 108.085186)"><g><path d="M 40.265625 0 L 8.453125 0 L 8.453125 -75.828125 L 40.265625 -75.828125 Z M 40.265625 0 "/></g></g></g><g fill="#00bf63" fill-opacity="1"><g transform="translate(833.552255, 108.085186)"><g><path d="M 120.953125 0 L 83.125 0 L 40.265625 -51.3125 L 40.265625 0 L 8.453125 0 L 8.453125 -75.828125 L 46.28125 -75.828125 L 89.140625 -24.78125 L 89.140625 -75.828125 L 120.953125 -75.828125 Z M 120.953125 0 "/></g></g></g><g fill="#00bf63" fill-opacity="1"><g transform="translate(962.957202, 108.085186)"><g><path d="M 127.34375 0 L 95.109375 0 L 87.984375 -12.421875 L 40.15625 -12.421875 L 33.03125 0 L 0.796875 0 L 49.296875 -75.78125 L 78.84375 -75.78125 Z M 77.25 -31.171875 L 64.09375 -54.15625 L 50.890625 -31.171875 Z M 77.25 -31.171875 "/></g></g></g><g fill="#00bf63" fill-opacity="1"><g transform="translate(1091.093976, 108.085186)"><g><path d="M 120.953125 0 L 83.125 0 L 40.265625 -51.3125 L 40.265625 0 L 8.453125 0 L 8.453125 -75.828125 L 46.28125 -75.828125 L 89.140625 -24.78125 L 89.140625 -75.828125 L 120.953125 -75.828125 Z M 120.953125 0 "/></g></g></g><g fill="#00bf63" fill-opacity="1"><g transform="translate(1220.498909, 108.085186)"><g><path d="M 57.328125 1.640625 C 38.585938 1.640625 24.796875 -2.21875 15.953125 -9.9375 C 8.140625 -16.726562 4.234375 -26.023438 4.234375 -37.828125 C 4.234375 -49.628906 8.140625 -58.945312 15.953125 -65.78125 C 24.796875 -73.46875 38.585938 -77.3125 57.328125 -77.3125 C 68.316406 -77.3125 77.40625 -76.050781 84.59375 -73.53125 C 91.78125 -71.007812 97.363281 -67.5625 101.34375 -63.1875 C 105.332031 -58.820312 107.976562 -53.820312 109.28125 -48.1875 L 75.828125 -48.1875 C 72.484375 -54.070312 66.316406 -57.015625 57.328125 -57.015625 C 49.648438 -57.015625 44 -54.796875 40.375 -50.359375 C 37.476562 -46.835938 36.03125 -42.660156 36.03125 -37.828125 C 36.03125 -33.003906 37.476562 -28.832031 40.375 -25.3125 C 44 -20.875 49.648438 -18.65625 57.328125 -18.65625 C 66.316406 -18.65625 72.484375 -21.613281 75.828125 -27.53125 L 109.28125 -27.53125 C 107.976562 -21.851562 105.332031 -16.832031 101.34375 -12.46875 C 97.363281 -8.101562 91.78125 -4.660156 84.59375 -2.140625 C 77.40625 0.378906 68.316406 1.640625 57.328125 1.640625 Z M 57.328125 1.640625 "/></g></g></g><g fill="#00bf63" fill-opacity="1"><g transform="translate(1333.999042, 108.085186)"><g><path d="M 99.765625 0 L 8.453125 0 L 8.453125 -75.828125 L 95.59375 -75.828125 L 95.59375 -57.0625 L 40.265625 -57.0625 L 40.265625 -45.171875 L 87.03125 -45.171875 L 87.03125 -30.59375 L 40.265625 -30.59375 L 40.265625 -18.765625 L 99.765625 -18.765625 Z M 99.765625 0 "/></g></g></g></svg>